<svg width="24" height="24" viewBox="0 0 24 24" fill="none" xmlns="http://www.w3.org/2000/svg">
<path d="M12 0C5.36667 0 0 5.36667 0 12C0 18.6333 5.36667 24 12 24C18.6333 24 24 18.6333 24 12C24 5.36667 18.6333 0 12 0ZM15.1333 19C14.3667 19.3333 13.5333 19.2333 12.9 18.8C12.8 18.7667 12.7333 18.7 12.6667 18.6333C12.5667 18.5667 10.3667 16.6 8.93333 13.4C7.5 10.2 7.5 7.23333 7.5 7.13333C7.5 7.06667 7.5 7 7.5 6.96667C7.56667 6.16667 8.03333 5.4 8.83333 5.03333C9.96667 4.53333 11.3333 5.03333 11.8333 6.16667C12.3333 7.3 11.8333 8.66667 10.7 9.16667C10.6667 9.2 10.6333 9.2 10.5667 9.2C10.7333 10.0667 11.0333 11.1333 11.5 12.2333C12 13.3333 12.6 14.2333 13.1333 14.9333C13.1667 14.9 13.2 14.9 13.2333 14.8667C14.3667 14.3667 15.7333 14.8667 16.2333 16C16.8 17.1333 16.3 18.5 15.1333 19Z" fill="white"/>
</svg>
